<?xml version="1.0" encoding="UTF-8" standalone="no"?>
<!DOCTYPE svg PUBLIC "-//W3C//DTD SVG 1.1//EN" "http://www.w3.org/Graphics/SVG/1.1/DTD/svg11.dtd">
<svg width="100%" height="100%" viewBox="0 0 441 239" version="1.1" xmlns="http://www.w3.org/2000/svg" xmlns:xlink="http://www.w3.org/1999/xlink" xml:space="preserve" xmlns:serif="http://www.serif.com/" style="fill-rule:evenodd;clip-rule:evenodd;stroke-linejoin:round;stroke-miterlimit:2;">
    <g transform="matrix(1,0,0,1,0.0126483,0.00532976)">
        <g id="Layer1">
            <rect x="0" y="0" width="440.98" height="237.669" style="fill:rgb(24,24,56);"/>
        </g>
        <g transform="matrix(1,0,0,1,-957,-396.9)">
            <g id="Logo">
                <g transform="matrix(0.332748,0,0,0.332748,726.211,313.524)">
                    <g transform="matrix(241.74,0,0,241.74,690.5,437.417)">
                        <path d="M0.464,-0.178C0.434,-0.125 0.378,-0.09 0.314,-0.09C0.218,-0.09 0.141,-0.167 0.141,-0.263C0.141,-0.358 0.218,-0.436 0.314,-0.436C0.378,-0.436 0.434,-0.401 0.464,-0.349L0.552,-0.376C0.51,-0.465 0.419,-0.527 0.313,-0.527C0.168,-0.527 0.05,-0.409 0.05,-0.263C0.05,-0.118 0.168,-0 0.313,-0C0.419,-0 0.51,-0.062 0.552,-0.151L0.464,-0.178Z" style="fill:rgb(224,224,232);fill-rule:nonzero;"/>
                    </g>
                    <g transform="matrix(241.74,0,0,241.74,836.269,437.417)">
                        <path d="M0.315,-0.527C0.169,-0.527 0.051,-0.409 0.051,-0.263C0.051,-0.118 0.169,-0 0.315,-0C0.46,-0 0.578,-0.118 0.578,-0.263C0.578,-0.409 0.46,-0.527 0.315,-0.527ZM0.488,-0.263C0.488,-0.167 0.411,-0.09 0.315,-0.09C0.22,-0.09 0.142,-0.167 0.142,-0.263C0.142,-0.358 0.22,-0.436 0.315,-0.436C0.411,-0.436 0.488,-0.358 0.488,-0.263Z" style="fill:rgb(224,224,232);fill-rule:nonzero;"/>
                    </g>
                    <g transform="matrix(241.74,0,0,241.74,987.357,437.417)">
                        <path d="M0.481,-0L0.481,-0.287C0.481,-0.403 0.395,-0.527 0.267,-0.527C0.139,-0.527 0.051,-0.403 0.051,-0.292L0.051,-0L0.141,-0L0.141,-0.292C0.141,-0.359 0.196,-0.437 0.267,-0.437C0.34,-0.437 0.391,-0.358 0.391,-0.287L0.391,-0L0.481,-0Z" style="fill:rgb(224,224,232);fill-rule:nonzero;"/>
                    </g>
                    <g transform="matrix(241.74,0,0,241.74,1115.48,437.417)">
                        <path d="M0.487,-0.773L0.487,-0.462C0.441,-0.502 0.38,-0.527 0.314,-0.527C0.169,-0.527 0.051,-0.409 0.051,-0.263C0.051,-0.118 0.169,-0 0.314,-0C0.38,-0 0.441,-0.025 0.487,-0.065L0.487,-0L0.577,-0L0.577,-0.773L0.487,-0.773ZM0.314,-0.09C0.219,-0.09 0.141,-0.167 0.141,-0.263C0.141,-0.358 0.219,-0.436 0.314,-0.436C0.41,-0.436 0.487,-0.358 0.487,-0.263C0.487,-0.167 0.41,-0.09 0.314,-0.09Z" style="fill:rgb(224,224,232);fill-rule:nonzero;"/>
                    </g>
                    <g transform="matrix(241.74,0,0,241.74,1266.81,437.417)">
                        <path d="M0.315,-0.527C0.169,-0.527 0.051,-0.409 0.051,-0.263C0.051,-0.118 0.169,-0 0.315,-0C0.46,-0 0.578,-0.118 0.578,-0.263C0.578,-0.409 0.46,-0.527 0.315,-0.527ZM0.488,-0.263C0.488,-0.167 0.411,-0.09 0.315,-0.09C0.22,-0.09 0.142,-0.167 0.142,-0.263C0.142,-0.358 0.22,-0.436 0.315,-0.436C0.411,-0.436 0.488,-0.358 0.488,-0.263Z" style="fill:rgb(224,224,232);fill-rule:nonzero;"/>
                    </g>
                </g>
                <g transform="matrix(0.962597,0,0,0.962597,199.318,0.0183466)">
                    <g transform="matrix(222.492,0,0,222.492,960,659.917)">
                        <path d="M0.345,-0.733L0.051,-0.733L0.051,-0L0.174,-0L0.174,-0.609L0.345,-0.609C0.427,-0.609 0.494,-0.542 0.494,-0.46C0.494,-0.378 0.427,-0.311 0.345,-0.311L0.197,-0.311L0.221,-0.188L0.345,-0.188C0.495,-0.188 0.617,-0.31 0.617,-0.46C0.617,-0.611 0.495,-0.733 0.345,-0.733Z" style="fill:rgb(224,224,232);fill-rule:nonzero;"/>
                    </g>
                    <g transform="matrix(222.492,0,0,222.492,1107.96,659.917)">
                        <path d="M0.345,-0.733L0.051,-0.733L0.051,-0L0.174,-0L0.174,-0.609L0.345,-0.609C0.427,-0.609 0.494,-0.542 0.494,-0.46C0.494,-0.378 0.427,-0.311 0.345,-0.311L0.197,-0.311L0.221,-0.188L0.345,-0.188C0.495,-0.188 0.617,-0.31 0.617,-0.46C0.617,-0.611 0.495,-0.733 0.345,-0.733Z" style="fill:rgb(224,224,232);fill-rule:nonzero;"/>
                    </g>
                </g>
                <g transform="matrix(0.792584,0,0,0.807211,379.595,228.878)">
                    <path d="M920.509,465.25L728.509,465.25L728.509,482.128C728.509,487.553 730.704,492.756 734.611,496.592C738.517,500.428 743.816,502.583 749.341,502.583C785.726,502.583 860.544,502.583 898.044,502.583C910.451,502.583 920.509,492.708 920.509,480.526L920.509,465.25Z" style="fill:rgb(224,224,232);"/>
                </g>
                <g transform="matrix(0.792584,0,0,0.807211,379.595,196.377)">
                    <rect x="728.509" y="465.25" width="192" height="37.333" style="fill:rgb(176,184,208);"/>
                </g>
                <g transform="matrix(0.792584,0,0,0.807211,379.595,163.887)">
                    <rect x="728.509" y="465.25" width="192" height="37.333" style="fill:rgb(152,152,184);"/>
                </g>
                <g transform="matrix(0.792584,0,0,0.807211,379.595,131.34)">
                    <rect x="728.509" y="465.25" width="192" height="37.333" style="fill:rgb(120,112,160);"/>
                </g>
                <g transform="matrix(0.792584,0,0,0.702757,379.595,151.321)">
                    <path d="M920.509,483.35C920.509,478.549 918.818,473.946 915.808,470.551C912.799,467.157 908.717,465.25 904.46,465.25C867.266,465.25 775.747,465.25 741.619,465.25C738.142,465.25 734.808,466.808 732.349,469.581C729.89,472.354 728.509,476.115 728.509,480.036C728.509,490.464 728.509,502.583 728.509,502.583L920.509,502.583L920.509,483.35Z" style="fill:rgb(96,104,160);"/>
                </g>
                <g transform="matrix(207.642,0,0,214.048,946.813,631.163)">
                    <g>
                        <path d="M0.439,-0.688C0.434,-0.696 0.426,-0.701 0.416,-0.701C0.406,-0.701 0.398,-0.696 0.393,-0.688C0.334,-0.57 0.176,-0.254 0.096,-0.095C0.086,-0.074 0.087,-0.05 0.1,-0.031C0.112,-0.012 0.134,0 0.157,0L0.682,0C0.704,-0 0.724,-0.011 0.735,-0.029C0.747,-0.046 0.748,-0.068 0.738,-0.087C0.66,-0.244 0.498,-0.568 0.439,-0.688ZM0.402,-0.454C0.404,-0.459 0.41,-0.463 0.416,-0.463C0.422,-0.463 0.428,-0.459 0.43,-0.454C0.462,-0.39 0.539,-0.236 0.578,-0.158C0.583,-0.148 0.582,-0.137 0.576,-0.127C0.57,-0.118 0.559,-0.112 0.548,-0.112L0.274,-0.112C0.265,-0.112 0.256,-0.117 0.251,-0.124C0.246,-0.132 0.246,-0.141 0.25,-0.149C0.287,-0.223 0.368,-0.387 0.402,-0.454Z" style="fill:rgb(24,24,56);fill-rule:nonzero;"/>
                    </g>
                </g>
            </g>
        </g>
    </g>
</svg>
